<svg class="svg-icon" fill= "currentColor" overflow= "hidden" viewBox="0 0 22 22" version="1.1" xmlns="http://www.w3.org/2000/svg"><path d="M942.717 778.159h-433.237c-18.451 0-35.843 7.168-48.934 20.197l-182.614 85.245c-15.366 15.304-36.186 23.906-58.378 23.906-22.068 0-42.919-8.602-58.689-24.249-15.741-15.74-24.373-36.499-24.373-58.471v-632.463c0-41.827 35.719-75.832 79.572-75.832h726.653c43.883 0 79.603 34.005 79.603 75.832v510.036c0 41.797-35.719 75.801-79.603 75.801zM966.935 192.324c0-11.408-10.846-20.695-24.218-20.695h-726.653c-13.34 0-24.218 9.289-24.218 20.695v255.017h0.032l-0.032 377.445c0 7.387 2.837 14.12 8.166 19.48 10.597 10.536 28.582 10.503 39.115 0.032l182.645-85.276c23.157-23.095 54.482-35.998 87.707-35.998h433.237c13.371 0 24.218-9.288 24.218-20.664v-510.036zM800.839 612.751c-30.577 0-55.355-24.686-55.355-55.136s24.779-55.136 55.355-55.136c30.577 0 55.386 24.686 55.386 55.136 0 30.451-24.81 55.136-55.386 55.136zM579.391 612.751c-30.577 0-55.355-24.686-55.355-55.136s24.778-55.136 55.355-55.136c30.577 0 55.386 24.686 55.386 55.136 0 30.451-24.81 55.136-55.386 55.136zM357.942 612.751c-30.577 0-55.355-24.686-55.355-55.136s24.778-55.136 55.355-55.136c30.577 0 55.355 24.686 55.355 55.136 0 30.451-24.778 55.136-55.355 55.136z"  /></svg>